<?xml version="1.0" encoding="utf-8"?>
<!-- Generator: Adobe Illustrator 24.3.0, SVG Export Plug-In . SVG Version: 6.00 Build 0)  -->
<svg version="1.1" xmlns="http://www.w3.org/2000/svg" xmlns:xlink="http://www.w3.org/1999/xlink" x="0px" y="0px"
	 viewBox="0 0 1224 792" style="enable-background:new 0 0 1224 792;" xml:space="preserve">
<style type="text/css">
	.st0{display:none;}
	.st1{display:inline;fill:none;stroke:#010101;stroke-linecap:round;stroke-linejoin:round;}
	.st2{fill:#125087;}
	.st3{fill:#84C7EE;}
</style>
<g id="Layer_1">
</g>
<g id="Make2D::Visible::Curves::Default" class="st0">
	<path class="st1" d="M1001.65,643.28c3.35,1.58,6.14,4.14,8,7.35"/>
	<line class="st1" x1="496.8" y1="408.27" x2="496.8" y2="554.7"/>
	<line class="st1" x1="670.67" y1="732.37" x2="336.93" y2="732.37"/>
	<path class="st1" d="M823.95,329.01c3.24,5.62,3.24,12.54,0,18.16"/>
	<path class="st1" d="M550.91,40.23c-1.85-3.21-4.64-5.77-8-7.35"/>
	<line class="st1" x1="519.46" y1="40.23" x2="175.24" y2="636.43"/>
	<path class="st1" d="M175.24,636.43c-2.54,4.4-3.12,9.66-1.6,14.51c1.52,4.85,5,8.84,9.6,11"/>
	<path class="st1" d="M524.7,663.68c6.49,0,12.48-3.46,15.73-9.08"/>
	<path class="st1" d="M585.18,577.08c1.59-2.76,2.43-5.89,2.43-9.08"/>
	<path class="st1" d="M587.61,408.27c0-3.19-0.84-6.32-2.43-9.08"/>
	<line class="st1" x1="585.18" y1="399.18" x2="557.94" y2="352"/>
	<path class="st1" d="M557.94,352c-1.85-3.21-4.64-5.77-8-7.35"/>
	<line class="st1" x1="526.48" y1="352" x2="499.24" y2="399.18"/>
	<path class="st1" d="M499.24,399.18c-1.59,2.76-2.43,5.89-2.43,9.08"/>
	<path class="st1" d="M496.8,554.7c0,4.82-1.91,9.44-5.32,12.84c-3.41,3.41-8.03,5.32-12.84,5.32"/>
	<path class="st1" d="M348.25,572.87c-2.67,0-5.31-0.59-7.73-1.73"/>
	<line class="st1" x1="332.53" y1="545.62" x2="519.46" y2="221.85"/>
	<path class="st1" d="M519.46,221.85c4.72-8.18,14.92-11.37,23.46-7.35"/>
	<path class="st1" d="M615.07,332.97c1.85,3.21,4.64,5.77,8,7.35"/>
	<line class="st1" x1="823.95" y1="347.18" x2="816.9" y2="359.39"/>
	<path class="st1" d="M686.4,723.29c-3.24,5.62-9.24,9.08-15.73,9.08"/>
	<path class="st1" d="M336.93,732.37c-2.67,0-5.31-0.59-7.73-1.73"/>
	<line class="st1" x1="696.88" y1="108.92" x2="823.95" y2="329.01"/>
	<line class="st1" x1="542.92" y1="32.88" x2="688.89" y2="101.57"/>
	<line class="st1" x1="329.2" y1="730.64" x2="183.23" y2="661.95"/>
	<path class="st1" d="M542.92,32.88c-8.54-4.02-18.74-0.82-23.46,7.35"/>
	<path class="st1" d="M688.89,101.57c3.35,1.58,6.14,4.14,8,7.35"/>
	<path class="st1" d="M549.94,344.65c-8.54-4.02-18.74-0.82-23.46,7.35"/>
	<path class="st1" d="M542.92,214.5c3.35,1.58,6.14,4.14,8,7.35"/>
	<path class="st1" d="M183.23,661.95c2.42,1.14,5.06,1.73,7.73,1.73"/>
	<path class="st1" d="M340.52,571.14c-4.6-2.16-8.08-6.15-9.6-11c-1.52-4.85-0.94-10.11,1.6-14.51"/>
	<line class="st1" x1="190.97" y1="663.68" x2="524.7" y2="663.68"/>
	<line class="st1" x1="587.61" y1="568" x2="587.61" y2="408.27"/>
	<line class="st1" x1="478.64" y1="572.87" x2="348.25" y2="572.87"/>
	<line class="st1" x1="677.99" y1="260.32" x2="550.91" y2="40.23"/>
	<line class="st1" x1="540.43" y1="654.59" x2="585.18" y2="577.08"/>
	<line class="st1" x1="550.91" y1="221.85" x2="615.07" y2="332.97"/>
	<line class="st1" x1="646.53" y1="332.97" x2="677.99" y2="278.49"/>
	<path class="st1" d="M677.99,278.49c3.24-5.62,3.24-12.54,0-18.16"/>
	<line class="st1" x1="1025.37" y1="732.37" x2="803.52" y2="732.37"/>
	<line class="st1" x1="890.21" y1="448.64" x2="890.21" y2="590.84"/>
	<path class="st1" d="M863.68,581.95c-1.85-3.21-4.64-5.77-8-7.35"/>
	<line class="st1" x1="1009.64" y1="650.64" x2="1041.1" y2="705.12"/>
	<path class="st1" d="M762.41,572.87c-2.67,0-5.31-0.59-7.73-1.73"/>
	<path class="st1" d="M744.25,379.95c0-3.19-0.84-6.32-2.43-9.08"/>
	<line class="st1" x1="741.81" y1="370.87" x2="707.54" y2="311.52"/>
	<path class="st1" d="M707.54,311.52c-1.85-3.21-4.64-5.77-8-7.35"/>
	<path class="st1" d="M641.82,370.87c-1.59,2.76-2.43,5.89-2.43,9.08"/>
	<path class="st1" d="M639.39,645.51c0,7.03,4.06,13.44,10.43,16.43"/>
	<path class="st1" d="M1041.1,705.12c3.24,5.62,3.24,12.54,0,18.16c-3.24,5.62-9.24,9.08-15.73,9.08"/>
	<path class="st1" d="M803.52,732.37c-2.67,0-5.31-0.59-7.73-1.73"/>
	<line class="st1" x1="853.51" y1="380.21" x2="887.78" y2="439.56"/>
	<path class="st1" d="M887.78,439.56c1.59,2.76,2.43,5.89,2.43,9.08"/>
	<path class="st1" d="M855.68,574.59c-2.42-1.14-5.06-1.73-7.73-1.73"/>
	<path class="st1" d="M699.55,304.17c-8.54-4.02-18.74-0.82-23.46,7.35"/>
	<path class="st1" d="M845.52,372.86c3.35,1.58,6.14,4.14,8,7.35"/>
	<path class="st1" d="M754.67,571.14c-6.37-3-10.43-9.4-10.43-16.43"/>
	<path class="st1" d="M649.82,661.95c2.42,1.14,5.06,1.73,7.73,1.73"/>
	<line class="st1" x1="847.95" y1="572.87" x2="762.41" y2="572.87"/>
	<path class="st1" d="M879.4,663.68c6.49,0,12.48-3.46,15.73-9.08c3.24-5.62,3.24-12.54,0-18.16"/>
	<line class="st1" x1="706.43" y1="688.59" x2="686.4" y2="723.29"/>
	<line class="st1" x1="549.94" y1="344.65" x2="639.39" y2="386.74"/>
	<line class="st1" x1="651.68" y1="353.79" x2="623.07" y2="340.32"/>
	<path class="st1" d="M623.07,340.32c8.54,4.02,18.74,0.82,23.46-7.35"/>
	<line class="st1" x1="744.25" y1="554.7" x2="744.25" y2="379.95"/>
	<line class="st1" x1="639.39" y1="379.95" x2="639.39" y2="645.51"/>
	<line class="st1" x1="657.55" y1="663.68" x2="879.4" y2="663.68"/>
	<line class="st1" x1="676.09" y1="311.52" x2="641.82" y2="370.87"/>
	<line class="st1" x1="895.13" y1="636.43" x2="863.68" y2="581.95"/>
	<line class="st1" x1="855.68" y1="574.59" x2="1001.65" y2="643.28"/>
	<line class="st1" x1="699.55" y1="304.17" x2="845.52" y2="372.86"/>
	<line class="st1" x1="795.78" y1="730.64" x2="649.82" y2="661.95"/>
</g>
<g id="Layer_3" class="st0">
	<path class="st1" d="M1001.65,643.28c3.35,1.58,6.14,4.14,8,7.35"/>
	<line class="st1" x1="496.8" y1="408.27" x2="496.8" y2="554.7"/>
	<line class="st1" x1="670.67" y1="732.37" x2="336.93" y2="732.37"/>
	<path class="st1" d="M823.95,329.01c3.24,5.62,3.24,12.54,0,18.16"/>
	<path class="st1" d="M550.91,40.23c-1.85-3.21-4.64-5.77-8-7.35"/>
	<line class="st1" x1="519.46" y1="40.23" x2="175.24" y2="636.43"/>
	<path class="st1" d="M175.24,636.43c-2.54,4.4-3.12,9.66-1.6,14.51c1.52,4.85,5,8.84,9.6,11"/>
	<path class="st1" d="M524.7,663.68c6.49,0,12.48-3.46,15.73-9.08"/>
	<path class="st1" d="M585.18,577.08c1.59-2.76,2.43-5.89,2.43-9.08"/>
	<path class="st1" d="M587.61,408.27c0-3.19-0.84-6.32-2.43-9.08"/>
	<line class="st1" x1="585.18" y1="399.18" x2="557.94" y2="352"/>
	<path class="st1" d="M557.94,352c-1.85-3.21-4.64-5.77-8-7.35"/>
	<line class="st1" x1="526.48" y1="352" x2="499.24" y2="399.18"/>
	<path class="st1" d="M499.24,399.18c-1.59,2.76-2.43,5.89-2.43,9.08"/>
	<path class="st1" d="M496.8,554.7c0,4.82-1.91,9.44-5.32,12.84c-3.41,3.41-8.03,5.32-12.84,5.32"/>
	<path class="st1" d="M348.25,572.87c-2.67,0-5.31-0.59-7.73-1.73"/>
	<line class="st1" x1="332.53" y1="545.62" x2="519.46" y2="221.85"/>
	<path class="st1" d="M519.46,221.85c4.72-8.18,14.92-11.37,23.46-7.35"/>
	<path class="st1" d="M615.07,332.97c1.85,3.21,4.64,5.77,8,7.35"/>
	<line class="st1" x1="823.95" y1="347.18" x2="816.9" y2="359.39"/>
	<path class="st1" d="M686.4,723.29c-3.24,5.62-9.24,9.08-15.73,9.08"/>
	<path class="st1" d="M336.93,732.37c-2.67,0-5.31-0.59-7.73-1.73"/>
	<line class="st1" x1="696.88" y1="108.92" x2="823.95" y2="329.01"/>
	<line class="st1" x1="542.92" y1="32.88" x2="688.89" y2="101.57"/>
	<line class="st1" x1="329.2" y1="730.64" x2="183.23" y2="661.95"/>
	<path class="st1" d="M542.92,32.88c-8.54-4.02-18.74-0.82-23.46,7.35"/>
	<path class="st1" d="M688.89,101.57c3.35,1.58,6.14,4.14,8,7.35"/>
	<path class="st1" d="M549.94,344.65c-8.54-4.02-18.74-0.82-23.46,7.35"/>
	<path class="st1" d="M542.92,214.5c3.35,1.58,6.14,4.14,8,7.35"/>
	<path class="st1" d="M183.23,661.95c2.42,1.14,5.06,1.73,7.73,1.73"/>
	<path class="st1" d="M340.52,571.14c-4.6-2.16-8.08-6.15-9.6-11c-1.52-4.85-0.94-10.11,1.6-14.51"/>
	<line class="st1" x1="190.97" y1="663.68" x2="524.7" y2="663.68"/>
	<line class="st1" x1="587.61" y1="568" x2="587.61" y2="408.27"/>
	<line class="st1" x1="478.64" y1="572.87" x2="348.25" y2="572.87"/>
	<line class="st1" x1="677.99" y1="260.32" x2="550.91" y2="40.23"/>
	<line class="st1" x1="540.43" y1="654.59" x2="585.18" y2="577.08"/>
	<line class="st1" x1="550.91" y1="221.85" x2="615.07" y2="332.97"/>
	<line class="st1" x1="646.53" y1="332.97" x2="677.99" y2="278.49"/>
	<path class="st1" d="M677.99,278.49c3.24-5.62,3.24-12.54,0-18.16"/>
	<line class="st1" x1="1025.37" y1="732.37" x2="803.52" y2="732.37"/>
	<line class="st1" x1="890.21" y1="448.64" x2="890.21" y2="590.84"/>
	<path class="st1" d="M863.68,581.95c-1.85-3.21-4.64-5.77-8-7.35"/>
	<line class="st1" x1="1009.64" y1="650.64" x2="1041.1" y2="705.12"/>
	<path class="st1" d="M762.41,572.87c-2.67,0-5.31-0.59-7.73-1.73"/>
	<path class="st1" d="M744.25,379.95c0-3.19-0.84-6.32-2.43-9.08"/>
	<line class="st1" x1="741.81" y1="370.87" x2="707.54" y2="311.52"/>
	<path class="st1" d="M707.54,311.52c-1.85-3.21-4.64-5.77-8-7.35"/>
	<path class="st1" d="M641.82,370.87c-1.59,2.76-2.43,5.89-2.43,9.08"/>
	<path class="st1" d="M639.39,645.51c0,7.03,4.06,13.44,10.43,16.43"/>
	<path class="st1" d="M1041.1,705.12c3.24,5.62,3.24,12.54,0,18.16c-3.24,5.62-9.24,9.08-15.73,9.08"/>
	<path class="st1" d="M803.52,732.37c-2.67,0-5.31-0.59-7.73-1.73"/>
	<line class="st1" x1="853.51" y1="380.21" x2="887.78" y2="439.56"/>
	<path class="st1" d="M887.78,439.56c1.59,2.76,2.43,5.89,2.43,9.08"/>
	<path class="st1" d="M855.68,574.59c-2.42-1.14-5.06-1.73-7.73-1.73"/>
	<path class="st1" d="M699.55,304.17c-8.54-4.02-18.74-0.82-23.46,7.35"/>
	<path class="st1" d="M845.52,372.86c3.35,1.58,6.14,4.14,8,7.35"/>
	<path class="st1" d="M754.67,571.14c-6.37-3-10.43-9.4-10.43-16.43"/>
	<path class="st1" d="M649.82,661.95c2.42,1.14,5.06,1.73,7.73,1.73"/>
	<line class="st1" x1="847.95" y1="572.87" x2="762.41" y2="572.87"/>
	<path class="st1" d="M879.4,663.68c6.49,0,12.48-3.46,15.73-9.08c3.24-5.62,3.24-12.54,0-18.16"/>
	<line class="st1" x1="706.43" y1="688.59" x2="686.4" y2="723.29"/>
	<line class="st1" x1="549.94" y1="344.65" x2="639.39" y2="386.74"/>
	<line class="st1" x1="651.68" y1="353.79" x2="623.07" y2="340.32"/>
	<path class="st1" d="M623.07,340.32c8.54,4.02,18.74,0.82,23.46-7.35"/>
	<line class="st1" x1="744.25" y1="554.7" x2="744.25" y2="379.95"/>
	<line class="st1" x1="639.39" y1="379.95" x2="639.39" y2="645.51"/>
	<line class="st1" x1="657.55" y1="663.68" x2="879.4" y2="663.68"/>
	<line class="st1" x1="676.09" y1="311.52" x2="641.82" y2="370.87"/>
	<line class="st1" x1="895.13" y1="636.43" x2="863.68" y2="581.95"/>
	<line class="st1" x1="855.68" y1="574.59" x2="1001.65" y2="643.28"/>
	<line class="st1" x1="699.55" y1="304.17" x2="845.52" y2="372.86"/>
	<line class="st1" x1="795.78" y1="730.64" x2="649.82" y2="661.95"/>
</g>
<g id="Layer_02">
	<path class="st2" d="M689.97,114.6c3.24,1.52,5.93,4,7.72,7.1c40.91,70.87,81.83,141.73,122.74,212.6c3.13,5.43,3.13,12.12,0,17.54
		c-2.27,3.93-4.54,7.87-6.81,11.8c9.21,4.34,18.43,8.67,27.64,13.01c3.24,1.52,5.93,4,7.72,7.1c11.03,19.11,22.07,38.22,33.1,57.33
		c1.54,2.67,2.35,5.69,2.35,8.77c0,45.79,0,91.57,0,137.36c35.88,16.88,71.76,33.77,107.64,50.65c3.24,1.52,5.93,4,7.72,7.1
		c10.13,17.54,20.26,35.09,30.39,52.63c3.13,5.43,3.13,12.12,0,17.54c-3.13,5.43-8.93,8.77-15.19,8.77c-71.43,0-142.87,0-214.3,0
		c-2.58,0-5.13-0.57-7.47-1.67c-28.77-13.54-57.54-27.08-86.31-40.62c-6.45,11.17-12.9,22.34-19.35,33.52
		c-3.13,5.43-8.93,8.77-15.19,8.77c-107.45,0-214.91,0-322.36,0c-2.58,0-5.13-0.57-7.47-1.67c-47-22.12-94-44.23-140.99-66.35
		c2.34,1.1,4.89,1.67,7.47,1.67c107.45,0,214.91,0,322.36,0c6.27,0,12.06-3.34,15.19-8.77c14.41-24.96,28.82-49.92,43.23-74.87
		c1.54-2.67,2.35-5.69,2.35-8.77c0-51.43,0-102.86,0-154.29c0-3.08-0.81-6.1-2.35-8.77c-8.77-15.19-17.54-30.39-26.32-45.58
		c-1.79-3.1-4.48-5.58-7.72-7.1c-8.25-3.88-18.1-0.8-22.66,7.1c-8.77,15.19-17.54,30.39-26.32,45.58c-1.54,2.67-2.35,5.69-2.35,8.77
		c0,47.15,0,94.3,0,141.45c0,4.65-1.85,9.11-5.14,12.41s-7.75,5.14-12.4,5.14c-41.98,0-83.96,0-125.95,0
		c-2.58,0-5.13-0.57-7.47-1.67c-4.44-2.09-7.8-5.94-9.27-10.63c-1.47-4.68-0.91-9.77,1.55-14.02
		c60.19-104.25,120.37-208.5,180.56-312.74c4.56-7.9,14.41-10.99,22.66-7.1c3.24,1.52,5.93,4,7.72,7.1
		c20.66,35.78,41.31,71.56,61.97,107.34c1.79,3.1,4.48,5.58,7.72,7.1c8.25,3.88,18.1,0.8,22.66-7.1
		c10.13-17.54,20.26-35.09,30.39-52.63c3.13-5.43,3.13-12.12,0-17.54c-40.91-70.87-81.83-141.73-122.74-212.6
		c-1.79-3.1-4.48-5.58-7.72-7.1C595.97,70.36,642.97,92.48,689.97,114.6z"/>
</g>
<g id="Layer_01">
	<path class="st3" d="M209.01,657.56c107.45,0,214.91,0,322.36,0c6.27,0,12.06-3.34,15.19-8.77c14.41-24.96,28.82-49.92,43.23-74.87
		c1.54-2.67,2.35-5.69,2.35-8.77c0-51.43,0-102.86,0-154.29c0-3.08-0.81-6.1-2.35-8.77c-8.77-15.19-17.54-30.39-26.32-45.58
		c-1.79-3.1-4.48-5.58-7.72-7.1c-8.25-3.88-18.1-0.8-22.66,7.1c-8.77,15.19-17.54,30.39-26.32,45.58c-1.54,2.67-2.35,5.69-2.35,8.77
		c0,47.15,0,94.3,0,141.45c0,4.65-1.85,9.11-5.14,12.41s-7.75,5.14-12.4,5.14c-41.98,0-83.96,0-125.95,0
		c-2.58,0-5.13-0.57-7.47-1.67c-4.44-2.09-7.8-5.94-9.27-10.63c-1.47-4.68-0.91-9.77,1.55-14.02
		c60.19-104.25,120.37-208.5,180.56-312.74c4.56-7.9,14.41-10.99,22.66-7.1c3.24,1.52,5.93,4,7.72,7.1
		c20.66,35.78,41.31,71.56,61.97,107.34c1.79,3.1,4.48,5.58,7.72,7.1c8.25,3.88,18.1,0.8,22.66-7.1
		c10.13-17.54,20.26-35.09,30.39-52.63c3.13-5.43,3.13-12.12,0-17.54c-40.91-70.87-81.83-141.73-122.74-212.6
		c-1.79-3.1-4.48-5.58-7.72-7.1c-8.25-3.88-18.1-0.8-22.66,7.1C415.48,247.31,304.65,439.28,193.82,631.24
		c-2.45,4.25-3.02,9.33-1.55,14.02c1.47,4.68,4.83,8.54,9.27,10.63C203.88,656.99,206.43,657.56,209.01,657.56z"/>
	<path class="st3" d="M652.23,655.89c2.34,1.1,4.89,1.67,7.47,1.67c71.43,0,142.87,0,214.3,0c6.27,0,12.06-3.34,15.19-8.77
		c3.13-5.43,3.13-12.12,0-17.54c-10.13-17.54-20.26-35.09-30.39-52.63c-1.79-3.1-4.48-5.58-7.72-7.1c-2.34-1.1-4.89-1.67-7.47-1.67
		c-27.54,0-55.08,0-82.62,0c-2.58,0-5.13-0.57-7.47-1.67c-6.15-2.89-10.07-9.08-10.07-15.87c0-56.27,0-112.53,0-168.8
		c0-3.08-0.81-6.1-2.35-8.77c-11.03-19.11-22.07-38.22-33.1-57.33c-1.79-3.1-4.48-5.58-7.72-7.1c-8.25-3.88-18.1-0.8-22.66,7.1
		c-11.03,19.11-22.07,38.22-33.1,57.33c-1.54,2.67-2.35,5.69-2.35,8.77c0,85.5,0,171.01,0,256.51
		C642.15,646.81,646.08,652.99,652.23,655.89z"/>
</g>
</svg>
