<svg width="449.5900024414062px" height="153.83251953125px" xmlns="http://www.w3.org/2000/svg" viewBox="25.204998779296886 -1.916259765625 449.5900024414062 153.83251953125" style="background: rgba(0, 0, 0, 0);" preserveAspectRatio="xMidYMid"><defs><filter id="editing-extrusion" x="-100%" y="-100%" width="300%" height="300%"><feFlood result="color1" flood-color="#1f5086"></feFlood><feConvolveMatrix order="11,11" divisor="1" kernelMatrix="1 0 0 0 0 0 0 0 0 0 0 0 1 0 0 0 0 0 0 0 0 0 0 0 1 0 0 0 0 0 0 0 0 0 0 0 1 0 0 0 0 0 0 0 0 0 0 0 1 0 0 0 0 0 0 0 0 0 0 0 1 0 0 0 0 0 0 0 0 0 0 0 1 0 0 0 0 0 0 0 0 0 0 0 1 0 0 0 0 0 0 0 0 0 0 0 1 0 0 0 0 0 0 0 0 0 0 0 1 0 0 0 0 0 0 0 0 0 0 0 1" in="SourceAlpha" result="extrude"></feConvolveMatrix><feComposite in="color1" in2="extrude" result="comp-extrude" operator="in"></feComposite><feOffset dx="5.5" dy="5.5" in="comp-extrude" result="offset-extrude"></feOffset><feMerge><feMergeNode in="offset-extrude"></feMergeNode><feMergeNode in="SourceGraphic"></feMergeNode></feMerge></filter></defs><g filter="url(#editing-extrusion)"><g transform="translate(90.18500113487244, 108.25)"><path d="M3.91-20.19L3.91-20.19L3.91-20.19Q3.91-23.78 4.73-27.08L4.73-27.08L4.73-27.08Q5.56-30.38 7.09-33.23L7.09-33.23L7.09-33.23Q8.63-36.09 10.80-38.42L10.80-38.42L10.80-38.42Q12.97-40.75 15.66-42.42L15.66-42.42L15.66-42.42Q18.34-44.09 21.48-45L21.48-45L21.48-45Q24.63-45.91 28.09-45.91L28.09-45.91L28.09-45.91Q30.84-45.91 32.92-45.55L32.92-45.55L32.92-45.55Q35-45.19 36.55-44.64L36.55-44.64L36.55-44.64Q38.09-44.09 39.14-43.44L39.14-43.44L39.14-43.44Q40.19-42.78 40.88-42.19L40.88-42.19L40.88-42.19Q40.84-42.19 40.84-41.97L40.84-41.97L40.84-41.97Q40.84-41.50 40.92-40.25L40.92-40.25L40.92-40.25Q41-39 41.11-37.47L41.11-37.47L41.11-37.47Q41.22-35.94 41.30-34.36L41.30-34.36L41.30-34.36Q41.38-32.78 41.38-31.63L41.38-31.63L41.38-31.63Q41.38-31.44 41.25-31.20L41.25-31.20L41.25-31.20Q41.13-30.97 40.63-30.97L40.63-30.97L40.63-30.97Q40.34-30.97 39.94-31.06L39.94-31.06L39.94-31.06Q39.28-31.25 38.28-31.92L38.28-31.92L38.28-31.92Q37.28-32.59 35.95-33.33L35.95-33.33L35.95-33.33Q34.63-34.06 32.98-34.64L32.98-34.64L32.98-34.64Q31.34-35.22 29.41-35.22L29.41-35.22L29.41-35.22Q26.84-35.22 24.75-34.14L24.75-34.14L24.75-34.14Q22.66-33.06 21.19-31.14L21.19-31.14L21.19-31.14Q19.72-29.22 18.91-26.58L18.91-26.58L18.91-26.58Q18.09-23.94 18.09-20.84L18.09-20.84L18.09-20.84Q18.09-18.13 18.59-15.75L18.59-15.75L18.59-15.75Q19.09-13.38 20.11-11.64L20.11-11.64L20.11-11.64Q21.13-9.91 22.63-8.91L22.63-8.91L22.63-8.91Q24.13-7.91 26.16-7.91L26.16-7.91L26.16-7.91Q28.13-7.91 30.63-8.75L30.63-8.75L31.34-13.16L25.38-13.16L25.38-13.16Q26.06-16.94 26.56-19.09L26.56-19.09L26.56-19.09Q27.06-21.25 27.50-22.34L27.50-22.34L27.50-22.34Q27.94-23.44 28.41-23.72L28.41-23.72L28.41-23.72Q28.88-24 29.50-24L29.50-24L45.94-24L45.94-24Q46.66-24 46.98-23.91L46.98-23.91L46.98-23.91Q47.31-23.81 47.31-23.25L47.31-23.25L47.31-23.25Q47.31-22.97 47.25-22.58L47.25-22.58L47.25-22.58Q47.19-22.19 47.09-21.63L47.09-21.63L45.53-16.38L45.53-16.38Q45.25-15.38 45.06-14.83L45.06-14.83L45.06-14.83Q44.88-14.28 44.59-14.02L44.59-14.02L44.59-14.02Q44.31-13.75 43.83-13.70L43.83-13.70L43.83-13.70Q43.34-13.66 42.44-13.66L42.44-13.66L42.44-13.66Q41.94-13.66 41.84-13.25L41.84-13.25L41.84-13.25Q41.75-12.84 41.69-12.41L41.69-12.41L41.69-12.41Q41.50-11.03 41.31-9.67L41.31-9.67L41.31-9.67Q41.13-8.31 40.95-7.14L40.95-7.14L40.95-7.14Q40.78-5.97 40.59-5.08L40.59-5.08L40.59-5.08Q40.41-4.19 40.22-3.78L40.22-3.78L40.22-3.78Q38.09-2.44 36.36-1.42L36.36-1.42L36.36-1.42Q34.63-0.41 32.91 0.27L32.91 0.27L32.91 0.27Q31.19 0.94 29.28 1.28L29.28 1.28L29.28 1.28Q27.38 1.63 24.91 1.63L24.91 1.63L24.91 1.63Q20.50 1.63 16.66 0.03L16.66 0.03L16.66 0.03Q12.81-1.56 9.98-4.45L9.98-4.45L9.98-4.45Q7.16-7.34 5.53-11.34L5.53-11.34L5.53-11.34Q3.91-15.34 3.91-20.19ZM76.97-35.13L75.03-25.44L75.03-25.44Q74.38-25.50 73.56-25.58L73.56-25.58L73.56-25.58Q72.75-25.66 71.84-25.66L71.84-25.66L71.84-25.66Q70.47-25.66 69.05-25.42L69.05-25.42L69.05-25.42Q67.63-25.19 66.41-24.50L66.41-24.50L66.41-24.50Q65.19-23.81 64.31-22.61L64.31-22.61L64.31-22.61Q63.44-21.41 63.19-19.50L63.19-19.50L63.19-19.50Q62.97-17.19 62.83-15.70L62.83-15.70L62.83-15.70Q62.69-14.22 62.63-13.27L62.63-13.27L62.63-13.27Q62.56-12.31 62.52-11.73L62.52-11.73L62.52-11.73Q62.47-11.16 62.44-10.66L62.44-10.66L62.44-10.66Q62.44-10.53 62.39-9.97L62.39-9.97L62.39-9.97Q62.34-9.41 62.25-8.66L62.25-8.66L62.25-8.66Q62.16-7.91 62.08-7.03L62.08-7.03L62.08-7.03Q62-6.16 61.91-5.41L61.91-5.41L61.91-5.41Q61.81-4.66 61.77-4.09L61.77-4.09L61.77-4.09Q61.72-3.53 61.72-3.41L61.72-3.41L61.72-3.41Q61.72-3.16 61.73-2.98L61.73-2.98L61.73-2.98Q61.75-2.81 61.75-2.66L61.75-2.66L61.75-2.66Q61.75-2.41 61.52-2.23L61.52-2.23L61.52-2.23Q61.28-2.06 60.47-1.84L60.47-1.84L52.19 1.13L52.19 1.13Q51.84 1.25 51.28 1.44L51.28 1.44L51.28 1.44Q50.72 1.63 50.19 1.63L50.19 1.63L50.19 1.63Q49.75 1.63 49.42 1.41L49.42 1.41L49.42 1.41Q49.09 1.19 49.09 0.66L49.09 0.66L51.78-30.31L51.78-30.31Q51.88-31.34 52.02-31.73L52.02-31.73L52.02-31.73Q52.16-32.13 52.72-32.25L52.72-32.25L52.72-32.25Q55.56-32.81 58.59-33.39L58.59-33.39L58.59-33.39Q61.63-33.97 64.47-34.88L64.47-34.88L64.47-34.88Q64.72-34.88 64.77-34.80L64.77-34.80L64.77-34.80Q64.81-34.72 64.81-34.56L64.81-34.56L64.81-34.56Q64.81-34.50 64.80-34.38L64.80-34.38L64.80-34.38Q64.78-34.25 64.70-33.81L64.70-33.81L64.70-33.81Q64.63-33.38 64.48-32.48L64.48-32.48L64.48-32.48Q64.34-31.59 64.09-30L64.09-30L64.09-30Q65.53-31.13 67.27-32.06L67.27-32.06L67.27-32.06Q69-33 70.75-33.67L70.75-33.67L70.75-33.67Q72.50-34.34 74.13-34.73L74.13-34.73L74.13-34.73Q75.75-35.13 76.97-35.13L76.97-35.13ZM94.13 1.63L94.13 1.63L94.13 1.63Q89.72 1.63 86.39 0.19L86.39 0.19L86.39 0.19Q83.06-1.25 80.81-3.64L80.81-3.64L80.81-3.64Q78.56-6.03 77.44-9.14L77.44-9.14L77.44-9.14Q76.31-12.25 76.31-15.59L76.31-15.59L76.31-15.59Q76.31-18.94 77.41-21.95L77.41-21.95L77.41-21.95Q78.50-24.97 80.47-27.36L80.47-27.36L80.47-27.36Q82.44-29.75 85.19-31.36L85.19-31.36L85.19-31.36Q87.94-32.97 91.25-33.53L91.25-33.53L91.25-33.53Q91.75-33.56 91.75-33.75L91.75-33.75L91.75-33.75Q91.75-34.09 91.67-34.39L91.67-34.39L91.67-34.39Q91.59-34.69 91.59-34.91L91.59-34.91L91.59-34.91Q91.59-35.25 91.72-35.38L91.72-35.38L91.72-35.38Q91.84-35.50 92-35.50L92-35.50L92-35.50Q97.97-35.50 102.16-34.14L102.16-34.14L102.16-34.14Q106.34-32.78 108.97-30.44L108.97-30.44L108.97-30.44Q111.59-28.09 112.78-24.91L112.78-24.91L112.78-24.91Q113.97-21.72 113.97-18.06L113.97-18.06L113.97-18.06Q113.97-13.41 112.41-9.75L112.41-9.75L112.41-9.75Q110.84-6.09 108.14-3.56L108.14-3.56L108.14-3.56Q105.44-1.03 101.83 0.30L101.83 0.30L101.83 0.30Q98.22 1.63 94.13 1.63ZM88.34-15.94L88.34-15.94L88.34-15.94Q88.34-14.25 88.70-12.59L88.70-12.59L88.70-12.59Q89.06-10.94 89.89-9.59L89.89-9.59L89.89-9.59Q90.72-8.25 92.06-7.42L92.06-7.42L92.06-7.42Q93.41-6.59 95.41-6.59L95.41-6.59L95.41-6.59Q96.84-6.66 97.92-7.23L97.92-7.23L97.92-7.23Q99-7.81 99.78-8.73L99.78-8.73L99.78-8.73Q100.56-9.66 101.08-10.81L101.08-10.81L101.08-10.81Q101.59-11.97 101.89-13.20L101.89-13.20L101.89-13.20Q102.19-14.44 102.31-15.63L102.31-15.63L102.31-15.63Q102.44-16.81 102.44-17.78L102.44-17.78L102.44-17.78Q102.44-19.41 101.95-20.97L101.95-20.97L101.95-20.97Q101.47-22.53 100.53-23.72L100.53-23.72L100.53-23.72Q99.59-24.91 98.20-25.64L98.20-25.64L98.20-25.64Q96.81-26.38 95-26.38L95-26.38L95-26.38Q93.13-26.38 91.84-25.27L91.84-25.27L91.84-25.27Q90.56-24.16 89.80-22.53L89.80-22.53L89.80-22.53Q89.03-20.91 88.69-19.11L88.69-19.11L88.69-19.11Q88.34-17.31 88.34-15.94ZM153.94-34.56L151-3.88L151-3.88Q150.91-2.84 150.75-2.45L150.75-2.45L150.75-2.45Q150.59-2.06 150.06-1.94L150.06-1.94L150.06-1.94Q147.41-1.19 144.52-0.42L144.52-0.42L144.52-0.42Q141.63 0.34 138.91 1.59L138.91 1.59L138.91 1.59Q138.81 1.63 138.63 1.63L138.63 1.63L138.63 1.63Q138.38 1.63 138.33 1.50L138.33 1.50L138.33 1.50Q138.28 1.38 138.28 1.22L138.28 1.22L138.28 1.22Q138.28 1.16 138.30 1L138.30 1L138.30 1Q138.31 0.84 138.38 0.42L138.38 0.42L138.38 0.42Q138.44 0 138.55-0.75L138.55-0.75L138.55-0.75Q138.66-1.50 138.84-2.75L138.84-2.75L138.84-2.75Q135.34-0.47 132.64 0.58L132.64 0.58L132.64 0.58Q129.94 1.63 127.84 1.63L127.84 1.63L127.84 1.63Q122.63 1.63 120.23-0.89L120.23-0.89L120.23-0.89Q117.84-3.41 117.84-8.41L117.84-8.41L117.84-8.41Q117.84-9.31 117.88-10.27L117.88-10.27L117.88-10.27Q117.91-11.22 118.06-12.22L118.06-12.22L118.06-12.22Q118.41-15.91 118.66-18.55L118.66-18.55L118.66-18.55Q118.91-21.19 119.06-23.03L119.06-23.03L119.06-23.03Q119.22-24.88 119.33-26.05L119.33-26.05L119.33-26.05Q119.44-27.22 119.52-28L119.52-28L119.52-28Q119.59-28.78 119.64-29.30L119.64-29.30L119.64-29.30Q119.69-29.81 119.75-30.31L119.75-30.31L119.75-30.31Q119.88-31.31 119.98-31.72L119.98-31.72L119.98-31.72Q120.09-32.13 120.69-32.25L120.69-32.25L120.69-32.25Q122.16-32.53 123.48-32.77L123.48-32.77L123.48-32.77Q124.81-33 126.11-33.27L126.11-33.27L126.11-33.27Q127.41-33.53 128.75-33.84L128.75-33.84L128.75-33.84Q130.09-34.16 131.59-34.59L131.59-34.59L131.59-34.59Q131.66-34.59 131.72-34.61L131.72-34.61L131.72-34.61Q131.78-34.63 131.84-34.63L131.84-34.63L131.84-34.63Q132.22-34.63 132.22-34.38L132.22-34.38L132.22-34.31L132.22-34.31Q132.09-33.25 132-32.31L132-32.31L132-32.31Q131.91-31.38 131.81-30.39L131.81-30.39L131.81-30.39Q131.72-29.41 131.61-28.28L131.61-28.28L131.61-28.28Q131.50-27.16 131.34-25.67L131.34-25.67L131.34-25.67Q131.19-24.19 130.97-22.25L130.97-22.25L130.97-22.25Q130.75-20.31 130.44-17.75L130.44-17.75L130.44-17.75Q130.25-15.88 130.06-14.02L130.06-14.02L130.06-14.02Q129.88-12.16 129.88-10.56L129.88-10.56L129.88-10.56Q129.88-9.69 130-8.95L130-8.95L130-8.95Q130.13-8.22 130.45-7.70L130.45-7.70L130.45-7.70Q130.78-7.19 131.31-6.91L131.31-6.91L131.31-6.91Q131.84-6.63 132.69-6.63L132.69-6.63L132.69-6.63Q133.34-6.63 134.47-6.92L134.47-6.92L134.47-6.92Q135.59-7.22 136.72-7.95L136.72-7.95L136.72-7.95Q137.84-8.69 138.70-9.89L138.70-9.89L138.70-9.89Q139.56-11.09 139.69-12.94L139.69-12.94L139.69-12.94Q139.91-16.03 140.08-18.11L140.08-18.11L140.08-18.11Q140.25-20.19 140.38-21.61L140.38-21.61L140.38-21.61Q140.50-23.03 140.59-24L140.59-24L140.59-24Q140.69-24.97 140.77-25.86L140.77-25.86L140.77-25.86Q140.84-26.75 140.91-27.77L140.91-27.77L140.91-27.77Q140.97-28.78 141.03-30.31L141.03-30.31L141.03-30.31Q141.13-31.34 141.27-31.73L141.27-31.73L141.27-31.73Q141.41-32.13 141.97-32.25L141.97-32.25L141.97-32.25Q144.81-32.81 147.78-33.39L147.78-33.39L147.78-33.39Q150.75-33.97 153.59-34.88L153.59-34.88L153.59-34.88Q153.84-34.88 153.89-34.80L153.89-34.80L153.89-34.80Q153.94-34.72 153.94-34.56L153.94-34.56ZM172.03-22.28L171.94-21.81L171.94-21.81Q171.75-18.81 171.61-16.94L171.61-16.94L171.61-16.94Q171.47-15.06 171.38-13.89L171.38-13.89L171.38-13.89Q171.28-12.72 171.22-12.05L171.22-12.05L171.22-12.05Q171.16-11.38 171.13-10.78L171.13-10.78L171.13-10.78Q171.84-8.91 173.25-7.73L173.25-7.73L173.25-7.73Q174.66-6.56 176.63-6.56L176.63-6.56L176.63-6.56Q178.34-6.56 179.64-7.64L179.64-7.64L179.64-7.64Q180.94-8.72 181.80-10.44L181.80-10.44L181.80-10.44Q182.66-12.16 183.09-14.28L183.09-14.28L183.09-14.28Q183.53-16.41 183.53-18.50L183.53-18.50L183.53-18.50Q183.53-20.22 183.23-21.69L183.23-21.69L183.23-21.69Q182.94-23.16 182.34-24.23L182.34-24.23L182.34-24.23Q181.75-25.31 180.86-25.92L180.86-25.92L180.86-25.92Q179.97-26.53 178.75-26.53L178.75-26.53L178.75-26.53Q177.75-26.53 176.77-26.14L176.77-26.14L176.77-26.14Q175.78-25.75 174.88-25.14L174.88-25.14L174.88-25.14Q173.97-24.53 173.23-23.77L173.23-23.77L173.23-23.77Q172.50-23 172.03-22.28L172.03-22.28ZM172.56-30.97L172.56-30.97L172.56-30.97Q175.19-32.75 178.06-33.81L178.06-33.81L178.06-33.81Q180.94-34.88 184.06-34.88L184.06-34.88L184.06-34.88Q187-34.88 189.14-33.67L189.14-33.67L189.14-33.67Q191.28-32.47 192.69-30.42L192.69-30.42L192.69-30.42Q194.09-28.38 194.77-25.72L194.77-25.72L194.77-25.72Q195.44-23.06 195.44-20.16L195.44-20.16L195.44-20.16Q195.44-17.63 194.94-15.03L194.94-15.03L194.94-15.03Q194.44-12.44 193.47-10.02L193.47-10.02L193.47-10.02Q192.50-7.59 191.06-5.47L191.06-5.47L191.06-5.47Q189.63-3.34 187.77-1.77L187.77-1.77L187.77-1.77Q185.91-0.19 183.63 0.72L183.63 0.72L183.63 0.72Q181.34 1.63 178.69 1.63L178.69 1.63L178.69 1.63Q176.34 1.63 174.20 0.69L174.20 0.69L174.20 0.69Q172.06-0.25 170.19-1.75L170.19-1.75L170.19-1.75Q170.19-1.59 170.11-0.61L170.11-0.61L170.11-0.61Q170.03 0.38 169.91 1.78L169.91 1.78L169.91 1.78Q169.78 3.19 169.63 4.80L169.63 4.80L169.63 4.80Q169.47 6.41 169.34 7.81L169.34 7.81L169.34 7.81Q169.22 9.22 169.14 10.20L169.14 10.20L169.14 10.20Q169.06 11.19 169.06 11.34L169.06 11.34L169.06 11.34Q169.06 11.59 169.08 11.77L169.08 11.77L169.08 11.77Q169.09 11.94 169.09 12.09L169.09 12.09L169.09 12.09Q169.09 12.34 168.86 12.52L168.86 12.52L168.86 12.52Q168.63 12.69 167.81 12.91L167.81 12.91L159.59 15L159.59 15Q159.25 15.09 158.69 15.30L158.69 15.30L158.69 15.30Q158.13 15.50 157.59 15.50L157.59 15.50L157.59 15.50Q157.16 15.50 156.83 15.28L156.83 15.28L156.83 15.28Q156.50 15.06 156.50 14.47L156.50 14.47L160.31-31.28L160.31-31.28Q160.41-32.31 160.55-32.70L160.55-32.70L160.55-32.70Q160.69-33.09 161.25-33.22L161.25-33.22L161.25-33.22Q164.09-33.78 167.09-34.36L167.09-34.36L167.09-34.36Q170.09-34.94 172.94-35.84L172.94-35.84L172.94-35.84Q173.19-35.84 173.23-35.77L173.23-35.77L173.23-35.77Q173.28-35.69 173.28-35.53L173.28-35.53L173.28-35.53Q173.28-35.47 173.27-35.34L173.27-35.34L173.27-35.34Q173.25-35.22 173.17-34.78L173.17-34.78L173.17-34.78Q173.09-34.34 172.95-33.45L172.95-33.45L172.95-33.45Q172.81-32.56 172.56-30.97ZM215.44-44.78L215.44-44.78L215.44-44.78Q215.41-44.03 215.31-42.92L215.31-42.92L215.31-42.92Q215.22-41.81 215.11-40.58L215.11-40.58L215.11-40.58Q215-39.34 214.86-38.08L214.86-38.08L214.86-38.08Q214.72-36.81 214.61-35.75L214.61-35.75L214.61-35.75Q214.50-34.69 214.44-33.92L214.44-33.92L214.44-33.92Q214.38-33.16 214.38-32.94L214.38-32.94L214.38-32.94Q214.25-31 214.11-29.34L214.11-29.34L214.11-29.34Q213.97-27.69 213.81-26.06L213.81-26.06L213.81-26.06Q213.66-24.44 213.48-22.70L213.48-22.70L213.48-22.70Q213.31-20.97 213.13-18.88L213.13-18.88L213.13-18.88Q212.94-16.78 212.70-14.22L212.70-14.22L212.70-14.22Q212.47-11.66 212.22-8.34L212.22-8.34L225.16-9.66L225.16-9.66Q226.03-9.75 226.59-9.75L226.59-9.75L226.59-9.75Q227.28-9.75 227.45-9.53L227.45-9.53L227.45-9.53Q227.63-9.31 227.63-8.84L227.63-8.84L227.63-8.84Q227.63-8.78 227.59-8.67L227.59-8.67L227.59-8.67Q227.56-8.56 227.45-8.25L227.45-8.25L227.45-8.25Q227.34-7.94 227.14-7.34L227.14-7.34L227.14-7.34Q226.94-6.75 226.59-5.69L226.59-5.69L225.91-3.63L225.91-3.63Q225.56-2.63 225.27-1.83L225.27-1.83L225.27-1.83Q224.97-1.03 224.53-0.45L224.53-0.45L224.53-0.45Q224.09 0.13 223.44 0.47L223.44 0.47L223.44 0.47Q222.78 0.81 221.75 0.91L221.75 0.91L221.75 0.91Q221.09 0.97 219.97 1.02L219.97 1.02L219.97 1.02Q218.84 1.06 217.38 1.11L217.38 1.11L217.38 1.11Q215.91 1.16 214.20 1.22L214.20 1.22L214.20 1.22Q212.50 1.28 210.72 1.38L210.72 1.38L210.72 1.38Q208.97 1.44 207.19 1.45L207.19 1.45L207.19 1.45Q205.41 1.47 203.81 1.50L203.81 1.50L203.81 1.50Q202.22 1.53 200.88 1.56L200.88 1.56L200.88 1.56Q199.53 1.59 198.66 1.63L198.66 1.63L198.66 1.63Q197.84 1.63 197.48 1.50L197.48 1.50L197.48 1.50Q197.13 1.38 197.13 1.09L197.13 1.09L197.13 1.09Q197.13 0.75 197.34 0.11L197.34 0.11L197.34 0.11Q197.56-0.53 197.91-1.33L197.91-1.33L197.91-1.33Q198.25-2.13 198.67-2.98L198.67-2.98L198.67-2.98Q199.09-3.84 199.50-4.66L199.50-4.66L200.34-15.81L200.34-15.81Q200.59-18.66 200.84-21.59L200.84-21.59L200.84-21.59Q201.09-24.53 201.28-27.28L201.28-27.28L201.81-35.56L201.81-35.56Q202-38.50 202.06-39.83L202.06-39.83L202.06-39.83Q202.13-41.16 202.13-41.28L202.13-41.28L202.13-41.28Q202.19-41.84 202.22-42.22L202.22-42.22L202.22-42.22Q202.25-42.59 202.33-42.84L202.33-42.84L202.33-42.84Q202.41-43.09 202.56-43.22L202.56-43.22L202.56-43.22Q202.72-43.34 203.03-43.41L203.03-43.41L214-46L214-46Q214.34-46.13 214.84-46.13L214.84-46.13L214.84-46.13Q215.19-46.13 215.33-45.92L215.33-45.92L215.33-45.92Q215.47-45.72 215.47-45.16L215.47-45.16L215.47-45.16Q215.47-45.09 215.45-44.98L215.45-44.98L215.45-44.98Q215.44-44.88 215.44-44.78ZM231-13.25L231-13.25L231-13.25Q231.41-17.53 231.81-21.72L231.81-21.72L231.81-21.72Q232.22-25.91 232.53-30.31L232.53-30.31L232.53-30.31Q232.59-31.34 232.73-31.73L232.73-31.73L232.73-31.73Q232.88-32.13 233.44-32.25L233.44-32.25L233.44-32.25Q236.09-32.78 239-33.36L239-33.36L239-33.36Q241.91-33.94 244.63-34.84L244.63-34.84L244.63-34.84Q244.72-34.88 244.91-34.88L244.91-34.88L244.91-34.88Q245.25-34.88 245.25-34.63L245.25-34.63L242.44-4.19L242.44-4.19Q242.34-3.16 242.22-2.77L242.22-2.77L242.22-2.77Q242.09-2.38 241.53-2.25L241.53-2.25L241.53-2.25Q238.88-1.44 236.16-0.44L236.16-0.44L236.16-0.44Q233.44 0.56 230.41 1.59L230.41 1.59L230.41 1.59Q230.31 1.63 230.13 1.63L230.13 1.63L230.13 1.63Q229.78 1.63 229.78 1.31L229.78 1.31L229.78 1.31Q229.78 1.28 229.84 0.47L229.84 0.47L229.84 0.47Q229.91-0.34 230.02-1.63L230.02-1.63L230.02-1.63Q230.13-2.91 230.25-4.50L230.25-4.50L230.25-4.50Q230.38-6.09 230.52-7.69L230.52-7.69L230.52-7.69Q230.66-9.28 230.78-10.75L230.78-10.75L230.78-10.75Q230.91-12.22 231-13.25ZM233.34-38.19L233.34-38.19L233.34-38.19Q233.44-39.53 233.48-40.25L233.48-40.25L233.48-40.25Q233.53-40.97 233.56-41.33L233.56-41.33L233.56-41.33Q233.59-41.69 233.59-41.78L233.59-41.78L233.59-41.78Q233.59-41.88 233.61-41.92L233.61-41.92L233.61-41.92Q233.63-41.97 233.64-42.11L233.64-42.11L233.64-42.11Q233.66-42.25 233.69-42.70L233.69-42.70L233.69-42.70Q233.72-43.16 233.78-44.03L233.78-44.03L233.78-44.03Q233.84-44.91 233.97-46.44L233.97-46.44L233.97-46.44Q234.03-47.47 234.17-47.86L234.17-47.86L234.17-47.86Q234.31-48.25 234.88-48.38L234.88-48.38L234.88-48.38Q237.53-48.91 240.44-49.48L240.44-49.48L240.44-49.48Q243.34-50.06 246.06-50.97L246.06-50.97L246.06-50.97Q246.16-51 246.34-51L246.34-51L246.34-51Q246.44-50.81 246.59-50.75L246.59-50.75L246.69-50.69L246-42.13L246-42.13Q245.91-41.09 245.77-40.69L245.77-40.69L245.77-40.69Q245.63-40.28 245.09-40.19L245.09-40.19L245.09-40.19Q242.44-39.69 239.72-39.09L239.72-39.09L239.72-39.09Q237-38.50 233.97-37.91L233.97-37.91L233.97-37.91Q233.88-37.88 233.69-37.88L233.69-37.88L233.69-37.88Q233.34-37.88 233.34-38.19ZM272.28-34.56L272.28-34.56L272.28-34.56Q272.41-34.88 272.75-34.88L272.75-34.88L272.75-34.88Q272.81-34.88 272.88-34.86L272.88-34.86L272.88-34.86Q272.94-34.84 273-34.84L273-34.84L273-34.84Q275.34-33.94 277.81-33.36L277.81-33.36L277.81-33.36Q280.28-32.78 282.72-32.25L282.72-32.25L282.72-32.25Q283.31-32.13 283.31-31.56L283.31-31.56L283.31-31.56Q283.31-31.16 282.94-30.31L282.94-30.31L270.06-2.94L270.06-2.94Q269.81-2.38 269.63-2.03L269.63-2.03L269.63-2.03Q269.44-1.69 269.25-1.47L269.25-1.47L269.25-1.47Q269.06-1.25 268.84-1.16L268.84-1.16L268.84-1.16Q268.63-1.06 268.31-1L268.31-1L268.31-1Q265.94-0.53 263.50 0.08L263.50 0.08L263.50 0.08Q261.06 0.69 258.44 1.59L258.44 1.59L258.44 1.59Q258.38 1.59 258.34 1.61L258.34 1.61L258.34 1.61Q258.31 1.63 258.28 1.63L258.28 1.63L258.06 1.63L258.06 1.63Q257.91 1.63 257.81 1.52L257.81 1.52L257.81 1.52Q257.72 1.41 257.69 1.31L257.69 1.31L257.69 1.31Q257.22-0.03 256.61-2.16L256.61-2.16L256.61-2.16Q256-4.28 255.28-6.91L255.28-6.91L255.28-6.91Q254.56-9.53 253.78-12.50L253.78-12.50L253.78-12.50Q253-15.47 252.19-18.53L252.19-18.53L252.19-18.53Q251.38-21.59 250.58-24.61L250.58-24.61L250.58-24.61Q249.78-27.63 249.03-30.31L249.03-30.31L249.03-30.31Q248.75-31.28 248.75-31.69L248.75-31.69L248.75-31.69Q248.75-32.13 249.25-32.25L249.25-32.25L249.25-32.25Q251.69-32.78 254.31-33.36L254.31-33.36L254.31-33.36Q256.94-33.94 259.28-34.84L259.28-34.84L259.28-34.84Q259.38-34.88 259.56-34.88L259.56-34.88L259.56-34.88Q259.97-34.88 260-34.56L260-34.56L264.13-13.56L264.13-13.56Q264.28-13.94 264.66-14.92L264.66-14.92L264.66-14.92Q265.03-15.91 265.56-17.28L265.56-17.28L265.56-17.28Q266.09-18.66 266.73-20.31L266.73-20.31L266.73-20.31Q267.38-21.97 268.05-23.69L268.05-23.69L268.05-23.69Q268.72-25.41 269.38-27.11L269.38-27.11L269.38-27.11Q270.03-28.81 270.61-30.28L270.61-30.28L270.61-30.28Q271.19-31.75 271.63-32.88L271.63-32.88L271.63-32.88Q272.06-34 272.28-34.56ZM302.56-34.88L302.56-34.88L302.56-34.88Q305.53-34.88 307.95-33.77L307.95-33.77L307.95-33.77Q310.38-32.66 312.11-30.89L312.11-30.89L312.11-30.89Q313.84-29.13 314.78-26.94L314.78-26.94L314.78-26.94Q315.72-24.75 315.72-22.56L315.72-22.56L315.72-22.56Q315.72-20.63 314.53-18.67L314.53-18.67L314.53-18.67Q313.34-16.72 311.20-15.16L311.20-15.16L311.20-15.16Q309.06-13.59 306.06-12.63L306.06-12.63L306.06-12.63Q303.06-11.66 299.47-11.66L299.47-11.66L299.47-11.66Q297.59-11.66 295.53-12.03L295.53-12.03L295.53-12.03Q295.66-10.69 296.31-9.72L296.31-9.72L296.31-9.72Q296.97-8.75 297.97-8.13L297.97-8.13L297.97-8.13Q298.97-7.50 300.23-7.20L300.23-7.20L300.23-7.20Q301.50-6.91 302.84-6.91L302.84-6.91L302.84-6.91Q304.34-6.91 305.73-7.17L305.73-7.17L305.73-7.17Q307.13-7.44 308.41-7.88L308.41-7.88L308.41-7.88Q309.69-8.31 310.88-8.84L310.88-8.84L310.88-8.84Q312.06-9.38 313.13-9.91L313.13-9.91L313.13-9.91Q313.41-9.97 313.61-10.02L313.61-10.02L313.61-10.02Q313.81-10.06 314-10.06L314-10.06L314-10.06Q314-10.06 313.98-9.56L313.98-9.56L313.98-9.56Q313.97-9.06 313.97-8.16L313.97-8.16L313.97-8.16Q313.97-7.25 313.95-5.97L313.95-5.97L313.95-5.97Q313.94-4.69 313.91-3.13L313.91-3.13L313.91-3.13Q314-2.97 314.03-2.81L314.03-2.81L314.03-2.81Q314.06-2.66 314.06-2.56L314.06-2.56L314.06-2.56Q314.06-2.19 313.38-1.75L313.38-1.75L313.38-1.75Q312.69-1.31 311.58-0.84L311.58-0.84L311.58-0.84Q310.47-0.38 309.05 0.06L309.05 0.06L309.05 0.06Q307.63 0.50 306.16 0.86L306.16 0.86L306.16 0.86Q304.69 1.22 303.31 1.42L303.31 1.42L303.31 1.42Q301.94 1.63 300.91 1.63L300.91 1.63L300.91 1.63Q297.53 1.63 294.36 0.45L294.36 0.45L294.36 0.45Q291.19-0.72 288.73-2.91L288.73-2.91L288.73-2.91Q286.28-5.09 284.81-8.22L284.81-8.22L284.81-8.22Q283.34-11.34 283.34-15.25L283.34-15.25L283.34-15.25Q283.34-19.34 284.75-22.92L284.75-22.92L284.75-22.92Q286.16-26.50 288.70-29.16L288.70-29.16L288.70-29.16Q291.25-31.81 294.78-33.34L294.78-33.34L294.78-33.34Q298.31-34.88 302.56-34.88ZM302.19-26.56L302.19-26.56L302.19-26.56Q300.91-26.56 299.83-26.02L299.83-26.02L299.83-26.02Q298.75-25.47 297.86-24.45L297.86-24.45L297.86-24.45Q296.97-23.44 296.31-22.02L296.31-22.02L296.31-22.02Q295.66-20.59 295.25-18.88L295.25-18.88L295.25-18.88Q298.47-19.44 300.59-20.06L300.59-20.06L300.59-20.06Q302.72-20.69 304-21.33L304-21.33L304-21.33Q305.28-21.97 305.81-22.61L305.81-22.61L305.81-22.61Q306.34-23.25 306.34-23.84L306.34-23.84L306.34-23.84Q306.34-24.41 305.92-24.91L305.92-24.91L305.92-24.91Q305.50-25.41 304.88-25.78L304.88-25.78L304.88-25.78Q304.25-26.16 303.52-26.36L303.52-26.36L303.52-26.36Q302.78-26.56 302.19-26.56Z" fill="#7acaff"></path></g></g><style>text {
  font-size: 64px;
  font-family: Arial Black;
  dominant-baseline: central;
  text-anchor: middle;
}</style></svg>