<svg width="450.5674560546875px" height="122.02138671875px" xmlns="http://www.w3.org/2000/svg" viewBox="24.716271972656244 13.989306640625003 450.5674560546875 122.02138671875" style="background:#e00" preserveAspectRatio="xMidYMid"><defs><filter id="editing-lego" x="-100%" y="-100%" width="300%" height="300%"><feFlood flood-color="#000" result="f1"></feFlood><feFlood flood-color="#ff0" result="f2"></feFlood><feMorphology operator="dilate" radius="3" in="SourceAlpha"></feMorphology><feConvolveMatrix order="5,5" divisor="1" result="cm1" kernelMatrix="0 1 1 1 0  1 0 0 0 1  1 0 0 0 1  1 0 0 0 1  0 1 1 1 0"></feConvolveMatrix><feComposite operator="in" in="f1" in2="cm1" result="c1"></feComposite><feMorphology operator="dilate" radius="3"></feMorphology><feConvolveMatrix order="5,5" divisor="1" result="cm2" kernelMatrix="0 1 1 1 0  1 0 0 0 1  1 0 0 0 1  1 0 0 0 1  0 1 1 1 0"></feConvolveMatrix><feComposite operator="in" in="f2" in2="cm2" result="c2"></feComposite><feMerge><feMergeNode in="c2"></feMergeNode><feMergeNode in="c1"></feMergeNode><feMergeNode in="SourceGraphic"></feMergeNode></feMerge></filter></defs><g filter="url(#editing-lego)"><g transform="translate(91.25001096725464, 104.75218772888184)"><path d="M27.01-20.61L39.94-21.76L39.94-21.76Q35.33-11.65 35.33 0.06L35.33 0.06L35.33 0.06Q33.60 1.28 31.07 1.28L31.07 1.28L31.07 1.28Q28.54 1.28 26.94 0.10L26.94 0.10L26.94 0.10Q25.34-1.09 25.02-2.30L25.02-2.30L25.02-2.30Q23.42-0.64 20.83 0.32L20.83 0.32L20.83 0.32Q18.24 1.28 15.49 1.28L15.49 1.28L15.49 1.28Q12.74 1.28 10.34 0.38L10.34 0.38L10.34 0.38Q7.94-0.51 6.08-2.50L6.08-2.50L6.08-2.50Q1.98-6.85 1.98-15.10L1.98-15.10L1.98-15.10Q1.98-27.90 8.83-35.58L8.83-35.58L8.83-35.58Q15.87-43.52 28.35-43.52L28.35-43.52L28.35-43.52Q36.99-43.52 40.06-39.04L40.06-39.04L40.06-39.04Q41.02-37.63 41.02-35.94L41.02-35.94L41.02-35.94Q41.02-34.24 40.29-32.80L40.29-32.80L40.29-32.80Q39.55-31.36 38.40-30.21L38.40-30.21L38.40-30.21Q35.65-27.65 32.26-27.65L32.26-27.65L32.26-27.65Q30.91-27.65 29.63-28.10L29.63-28.10L29.63-28.10Q29.89-30.02 29.89-32.26L29.89-32.26L29.89-32.26Q29.89-34.50 29.73-35.52L29.73-35.52L29.73-35.52Q29.57-36.54 29.18-37.38L29.18-37.38L29.18-37.38Q28.35-39.10 26.53-39.10L26.53-39.10L26.53-39.10Q24.70-39.10 22.69-37.15L22.69-37.15L22.69-37.15Q20.67-35.20 19.07-32L19.07-32L19.07-32Q15.55-24.83 15.55-16.19L15.55-16.19L15.55-16.19Q15.55-12.22 17.09-9.41L17.09-9.41L17.09-9.41Q18.75-6.34 21.70-6.34L21.70-6.34L21.70-6.34Q22.72-6.34 23.65-6.85L23.65-6.85L23.65-6.85Q24.58-7.36 24.96-7.74L24.96-7.74L27.01-20.61ZM63.10-17.98L63.10-17.98L63.10-17.98Q65.41-22.08 65.41-26.24L65.41-26.24L65.41-26.24Q65.41-28.99 63.42-28.99L63.42-28.99L63.42-28.99Q61.89-28.99 60.29-26.37L60.29-26.37L60.29-26.37Q58.62-23.74 58.11-20.35L58.11-20.35L54.78 0L41.54 1.28L48.06-32.64L58.62-33.92L57.47-27.46L57.47-27.46Q60.61-33.92 67.65-33.92L67.65-33.92L67.65-33.92Q71.36-33.92 73.38-32L73.38-32L73.38-32Q75.39-30.08 75.39-26.14L75.39-26.14L75.39-26.14Q75.39-22.21 72.80-19.71L72.80-19.71L72.80-19.71Q70.21-17.22 65.79-17.22L65.79-17.22L65.79-17.22Q63.87-17.22 63.10-17.98ZM90.37 1.28L90.37 1.28L90.37 1.28Q76.29 1.28 76.29-11.97L76.29-11.97L76.29-11.97Q76.29-21.38 81.47-27.46L81.47-27.46L81.47-27.46Q86.98-33.92 96.51-33.92L96.51-33.92L96.51-33.92Q103.42-33.92 106.94-30.72L106.94-30.72L106.94-30.72Q110.46-27.52 110.46-20.80L110.46-20.80L110.46-20.80Q110.46-10.56 104.96-4.61L104.96-4.61L104.96-4.61Q99.58 1.28 90.37 1.28ZM92.03-26.56L92.03-26.56L92.03-26.56Q91.26-24.83 90.66-22.24L90.66-22.24L90.66-22.24Q90.05-19.65 89.28-15.55L89.28-15.55L89.28-15.55Q88.51-11.46 88.51-6.40L88.51-6.40L88.51-6.40Q88.51-4.74 89.06-3.65L89.06-3.65L89.06-3.65Q89.60-2.56 91.07-2.56L91.07-2.56L91.07-2.56Q92.54-2.56 93.47-3.26L93.47-3.26L93.47-3.26Q94.40-3.97 95.10-5.63L95.10-5.63L95.10-5.63Q96.38-8.58 97.41-14.05L97.41-14.05L97.41-14.05Q98.43-19.52 98.53-21.89L98.53-21.89L98.53-21.89Q98.62-24.26 98.62-26.02L98.62-26.02L98.62-26.02Q98.62-27.78 98.11-28.93L98.11-28.93L98.11-28.93Q97.60-30.08 96.16-30.08L96.16-30.08L96.16-30.08Q94.72-30.08 93.76-29.18L93.76-29.18L93.76-29.18Q92.80-28.29 92.03-26.56ZM134.78-2.69L134.78-2.69L134.78-2.69Q131.71 1.28 124.10 1.28L124.10 1.28L124.10 1.28Q120.13 1.28 117.25-1.12L117.25-1.12L117.25-1.12Q114.37-3.52 114.37-6.98L114.37-6.98L114.37-6.98Q114.37-8.90 114.56-9.86L114.56-9.86L118.85-32.64L131.84-33.92L127.17-9.22L127.17-9.22Q126.91-7.81 126.91-6.98L126.91-6.98L126.91-6.98Q126.91-3.26 129.15-3.26L129.15-3.26L129.15-3.26Q131.65-3.26 133.44-6.66L133.44-6.66L133.44-6.66Q134.02-7.74 134.27-9.15L134.27-9.15L138.82-32.64L151.42-33.92L146.69-8.96L146.69-8.96Q146.50-8 146.50-6.98L146.50-6.98L146.50-6.98Q146.50-5.95 147.07-4.83L147.07-4.83L147.07-4.83Q147.65-3.71 149.50-3.46L149.50-3.46L149.50-3.46Q149.12-1.92 147.78-0.90L147.78-0.90L147.78-0.90Q144.96 1.28 141.92 1.28L141.92 1.28L141.92 1.28Q138.88 1.28 137.09 0.19L137.09 0.19L137.09 0.19Q135.30-0.90 134.78-2.69ZM184.70-4.38L184.70-4.38L184.70-4.38Q182.02-1.66 178.34-0.19L178.34-0.19L178.34-0.19Q174.66 1.28 171.01 1.28L171.01 1.28L171.01 1.28Q167.36 1.28 166.08 0.64L166.08 0.64L164.10 11.52L151.10 12.80L159.94-32.64L170.37-33.73L169.54-29.31L169.54-29.31Q172.22-33.86 177.79-33.86L177.79-33.86L177.79-33.86Q184.06-33.86 187.39-29.82L187.39-29.82L187.39-29.82Q190.34-26.18 190.34-20.61L190.34-20.61L190.34-20.61Q190.34-15.04 188.86-11.07L188.86-11.07L188.86-11.07Q187.39-7.10 184.70-4.38ZM170.24-22.34L166.85-3.58L166.85-3.58Q168.19-2.43 169.86-2.43L169.86-2.43L169.86-2.43Q171.52-2.43 172.48-3.07L172.48-3.07L172.48-3.07Q173.44-3.71 174.14-4.99L174.14-4.99L174.14-4.99Q176.06-8.45 177.60-18.94L177.60-18.94L177.60-18.94Q178.05-22.02 178.05-25.02L178.05-25.02L178.05-25.02Q178.05-28.03 177.38-28.99L177.38-28.99L177.38-28.99Q176.70-29.95 175.42-29.95L175.42-29.95L175.42-29.95Q171.52-29.95 170.24-22.34L170.24-22.34ZM220.93-9.86L220.93-9.86L220.93-9.86Q222.14-8.32 222.14-5.34L222.14-5.34L222.14-5.34Q222.14-2.37 219.87-0.54L219.87-0.54L219.87-0.54Q217.60 1.28 213.63 1.28L213.63 1.28L213.63 1.28Q211.33 1.28 207.74 0.77L207.74 0.77L207.74 0.77Q200.70-0.32 198.69-0.32L198.69-0.32L198.69-0.32Q196.67-0.32 195.84-0.22L195.84-0.22L195.84-0.22Q195.01-0.13 193.66 0L193.66 0L201.41-42.24L215.42-42.24L209.02-7.04L209.02-7.04Q209.86-6.91 210.62-6.91L210.62-6.91L212.22-6.91L212.22-6.91Q217.60-6.91 220.93-9.86ZM241.79-3.52L241.79-3.52L241.79-3.52Q239.81 1.28 233.47 1.28L233.47 1.28L233.47 1.28Q230.21 1.28 228.16-0.96L228.16-0.96L228.16-0.96Q226.43-2.94 226.43-4.93L226.43-4.93L226.43-4.93Q226.43-10.11 228.80-20.22L228.80-20.22L231.17-32.64L244.16-33.92L240.26-13.70L240.26-13.70Q239.17-8.96 239.17-7.30L239.17-7.30L239.17-7.30Q239.17-3.65 241.79-3.52ZM232.32-41.54L232.32-41.54L232.32-41.54Q232.32-44.03 234.40-45.38L234.40-45.38L234.40-45.38Q236.48-46.72 239.49-46.72L239.49-46.72L239.49-46.72Q242.50-46.72 244.32-45.38L244.32-45.38L244.32-45.38Q246.14-44.03 246.14-41.54L246.14-41.54L246.14-41.54Q246.14-39.04 244.13-37.76L244.13-37.76L244.13-37.76Q242.11-36.48 239.10-36.48L239.10-36.48L239.10-36.48Q236.10-36.48 234.21-37.76L234.21-37.76L234.21-37.76Q232.32-39.04 232.32-41.54ZM270.46-31.55L270.46-31.55L270.46-31.55Q272.58-33.92 276.22-33.92L276.22-33.92L276.22-33.92Q278.46-33.92 280.19-32.70L280.19-32.70L280.19-32.70Q281.92-31.49 281.92-29.22L281.92-29.22L281.92-29.22Q281.92-26.94 281.22-24.51L281.22-24.51L281.22-24.51Q280.51-22.08 279.42-19.58L279.42-19.58L279.42-19.58Q277.25-14.72 274.24-10.69L274.24-10.69L274.24-10.69Q270.02-4.86 265.95-1.79L265.95-1.79L265.95-1.79Q261.89 1.28 257.47 1.28L257.47 1.28L257.47 1.28Q253.89 1.28 251.71 0.45L251.71 0.45L251.71 0.45Q251.33-12.99 250.85-17.79L250.85-17.79L250.85-17.79Q250.37-22.59 249.98-25.22L249.98-25.22L249.98-25.22Q249.34-30.34 247.42-31.55L247.42-31.55L247.42-31.55Q248.90-32.83 250.34-33.38L250.34-33.38L250.34-33.38Q251.78-33.92 254.75-33.92L254.75-33.92L254.75-33.92Q257.73-33.92 259.84-31.58L259.84-31.58L259.84-31.58Q261.95-29.25 262.37-25.12L262.37-25.12L262.37-25.12Q262.78-20.99 262.78-16L262.78-16L262.78-16Q262.78-11.01 262.40-4.99L262.40-4.99L262.40-4.99Q264.38-6.40 266.50-10.69L266.50-10.69L266.50-10.69Q269.38-16.64 270.40-23.81L270.40-23.81L270.40-23.81Q270.72-25.98 270.72-28.29L270.72-28.29L270.72-28.29Q270.72-30.59 270.46-31.55ZM309.57-10.82L309.57-10.82L309.57-10.82Q311.17-9.73 311.17-7.33L311.17-7.33L311.17-7.33Q311.17-4.93 309.95-3.39L309.95-3.39L309.95-3.39Q308.74-1.86 306.75-0.83L306.75-0.83L306.75-0.83Q302.66 1.28 298.24 1.28L298.24 1.28L298.24 1.28Q293.82 1.28 291.23 0.32L291.23 0.32L291.23 0.32Q288.64-0.64 286.91-2.43L286.91-2.43L286.91-2.43Q283.52-5.82 283.52-12.03L283.52-12.03L283.52-12.03Q283.52-21.70 288.77-27.58L288.77-27.58L288.77-27.58Q294.40-33.92 304.19-33.92L304.19-33.92L304.19-33.92Q310.27-33.92 313.28-31.36L313.28-31.36L313.28-31.36Q315.52-29.44 315.52-26.30L315.52-26.30L315.52-26.30Q315.52-15.04 296.06-15.04L296.06-15.04L296.06-15.04Q295.81-13.38 295.81-11.97L295.81-11.97L295.81-11.97Q295.81-9.02 297.12-7.90L297.12-7.90L297.12-7.90Q298.43-6.78 300.86-6.78L300.86-6.78L300.86-6.78Q303.30-6.78 305.89-7.90L305.89-7.90L305.89-7.90Q308.48-9.02 309.57-10.82ZM296.51-17.79L296.51-17.79L296.51-17.79Q301.06-17.79 303.68-20.61L303.68-20.61L303.68-20.61Q306.30-23.30 306.30-27.58L306.30-27.58L306.30-27.58Q306.30-29.06 305.76-29.86L305.76-29.86L305.76-29.86Q305.22-30.66 304.13-30.66L304.13-30.66L304.13-30.66Q303.04-30.66 302.11-30.24L302.11-30.24L302.11-30.24Q301.18-29.82 300.22-28.42L300.22-28.42L300.22-28.42Q297.86-25.22 296.51-17.79Z" fill="#fff"></path></g></g><style>text {
  font-size: 64px;
  font-family: Arial Black;
  dominant-baseline: central;
  text-anchor: middle;
}</style></svg>